HIERARCHY
ROOT hip
{
	OFFSET 0.000000 0.000000 0.000000 
	CHANNELS 6 Xposition Yposition Zposition Xrotation Zrotation Yrotation
	JOINT abdomen
	{
		OFFSET 0.000000 3.402643 0.000000 
		CHANNELS 3 Xrotation Zrotation Yrotation
		JOINT chest
		{
			OFFSET 0.000000 8.438565 -0.680529 
			CHANNELS 3 Xrotation Zrotation Yrotation
			JOINT neck
			{
				OFFSET 0.000000 10.207942 -0.272212 
				CHANNELS 3 Xrotation Zrotation Yrotation
				JOINT head
				{
					OFFSET 0.000000 3.130431 0.000000 
					CHANNELS 3 Xrotation Zrotation Yrotation
					End Site
					{
						OFFSET 0.000000 3.130435 0.000000 
					}
				}
			}
			JOINT lCollar
			{
				OFFSET 3.470700 6.669187 -0.816635 
				CHANNELS 3 Yrotation Zrotation Xrotation
				JOINT lShldr
				{
					OFFSET 3.198488 0.000000 0.000000 
					CHANNELS 3 Zrotation Yrotation Xrotation
					JOINT lForeArm
					{
						OFFSET 10.139888 0.000000 0.000000 
						CHANNELS 3 Yrotation Zrotation Xrotation
						JOINT lHand
						{
							OFFSET 8.370511 0.000000 0.000000 
							CHANNELS 3 Zrotation Yrotation Xrotation
							End Site
							{
								OFFSET 4.083176 0.000000 0.000000 
							}
						}
					}
				}
			}
			JOINT rCollar
			{
				OFFSET -3.470700 6.669187 -0.816635 
				CHANNELS 3 Yrotation Zrotation Xrotation
				JOINT rShldr
				{
					OFFSET -3.198488 0.000000 0.000000 
					CHANNELS 3 Zrotation Yrotation Xrotation
					JOINT rForeArm
					{
						OFFSET -10.139888 0.000000 0.000000 
						CHANNELS 3 Yrotation Zrotation Xrotation
						JOINT rHand
						{
							OFFSET -8.370511 0.000000 0.000000 
							CHANNELS 3 Zrotation Yrotation Xrotation
							End Site
							{
								OFFSET -4.083176 0.000000 0.000000 
							}
						}
					}
				}
			}
		}
	}
	JOINT lThigh
	{
		OFFSET 5.308129 -1.633274 1.361059 
		CHANNELS 3 Xrotation Zrotation Yrotation
		JOINT lShin
		{
			OFFSET -2.041588 -20.007561 0.000000 
			CHANNELS 3 Xrotation Zrotation Yrotation
			JOINT lFoot
			{
				OFFSET 0.000000 -19.190928 -1.224953 
				CHANNELS 3 Xrotation Yrotation Zrotation
				End Site
				{
					OFFSET 0.000000 -2.449906 4.627600 
				}
			}
		}
	}
	JOINT rThigh
	{
		OFFSET -5.308129 -1.633274 1.361059 
		CHANNELS 3 Xrotation Zrotation Yrotation
		JOINT rShin
		{
			OFFSET 2.041588 -20.007561 0.000000 
			CHANNELS 3 Xrotation Zrotation Yrotation
			JOINT rFoot
			{
				OFFSET 0.000000 -19.190928 -1.224953 
				CHANNELS 3 Xrotation Yrotation Zrotation
				End Site
				{
					OFFSET 0.000000 -2.449906 4.627600 
				}
			}
		}
	}
}
MOTION
Frames: 18
Frame Time: 0.033333
-15.063304 47.485569 0.965368 -4.405493 1.333939 83.080864 0.000000 0.000000 0.000000 2.794089 9.724975 -3.979326 -0.356770 -2.163697 3.338057 -13.075426 -4.084791 -1.200920 13.410727 9.195971 2.677232 -93.738358 -17.181698 79.515587 -9.409440 -2.938419 11.811806 -4.215608 -5.011158 -0.819443 -11.103213 -16.210596 7.596698 95.027290 13.834291 18.411772 -1.154933 -5.939130 17.450466 -14.516877 -0.282372 -1.700278 3.923055 10.288448 7.171342 13.321629 -2.314734 -3.922818 -15.138229 0.639700 -3.625492 11.892953 -0.908703 -13.109941 -3.774498 2.211822 10.954703 -5.020318 5.068631 -1.333986 
-15.061393 47.465450 0.939483 -4.454443 1.392268 83.270493 0.000000 0.000000 0.000000 2.596696 9.824084 -4.263515 -0.204752 -2.488105 2.800544 -12.693594 -3.722174 -1.099682 13.555205 9.015837 2.543205 -93.533653 -16.573999 83.252831 -8.970448 -3.022889 11.677853 -5.630187 -5.400051 -0.687306 -11.084351 -16.395758 7.748161 95.259171 14.216199 19.343363 -0.443580 -5.829195 17.906811 -14.898188 -0.384977 -1.705925 3.698442 10.297833 6.732103 13.719996 -2.285412 -3.708914 -15.296508 0.658776 -3.594233 12.126303 -0.791238 -15.420744 -3.848100 2.276427 13.244218 -5.143031 5.000924 -1.039796 
-15.088071 47.503719 0.940528 -4.405027 1.041836 83.025230 0.000000 0.000000 0.000000 2.011076 9.681645 -4.368578 -0.121607 -2.709387 2.043572 -12.025037 -3.162719 -0.929525 13.908063 9.141286 2.169293 -93.391838 -15.438436 85.494759 -8.706970 -3.101211 11.447041 -7.693601 -5.947319 -0.487012 -11.053019 -16.472927 7.391503 95.525223 14.133821 19.677401 -0.041401 -5.713846 18.054436 -14.972681 -0.412776 -1.698761 3.737179 10.149869 6.579676 12.916425 -2.227302 -3.121018 -14.920968 0.644766 -3.687298 11.672527 -0.840559 -14.950369 -3.832231 2.279015 12.951849 -5.052510 5.036528 -1.134200 
-15.136921 47.569996 0.935280 -4.472776 0.418643 82.213348 0.000000 0.000000 0.000000 1.406122 9.528432 -3.732012 -0.165087 -2.693240 0.925038 -11.449908 -2.752352 -0.812435 13.934606 9.480215 2.154402 -93.148132 -14.504601 84.960701 -8.555419 -3.423879 11.140067 -8.411042 -6.133661 -0.404202 -11.301018 -16.333864 7.052592 95.728012 14.098533 21.507444 0.168066 -5.592708 17.995590 -14.179813 -0.180316 -1.705183 3.600132 10.120370 6.771681 12.150661 -2.148420 -2.387929 -14.434059 0.639429 -3.873100 10.788146 -0.898442 -12.755844 -3.792049 2.230536 11.539171 -4.713836 5.072343 -1.281659 
-15.176559 47.673042 0.917110 -4.375146 0.467384 81.038460 0.000000 0.000000 0.000000 1.908160 8.979475 -2.962863 -0.537577 -2.564247 -0.208036 -11.170532 -2.407907 -0.707272 13.993362 9.807848 2.916858 -92.711761 -14.479205 82.108788 -8.396431 -3.864658 10.831783 -8.293658 -6.098071 -0.421281 -11.560267 -15.975427 7.521142 95.839508 15.247999 25.277300 0.230746 -5.505733 17.869158 -13.192713 0.102614 -1.710557 4.838795 9.681250 7.253722 10.104786 -2.081969 -1.457501 -13.342045 0.608610 -3.979083 10.500731 -1.278875 -10.590487 -3.755764 2.183117 10.458755 -4.374614 5.074720 -1.326484 
-15.205294 47.775421 0.888727 -4.161512 1.460983 80.196480 0.000000 0.000000 0.000000 3.935679 8.086607 -2.647284 -1.521927 -2.408762 -1.409941 -11.037797 -1.995942 -0.586756 14.091467 9.999712 5.345862 -92.175888 -16.729723 78.473686 -8.276091 -4.302135 10.434269 -8.999673 -6.281571 -0.345854 -11.989799 -15.248448 9.818991 95.868568 18.939739 29.648506 0.036613 -5.542099 17.710962 -12.299494 0.355903 -1.701625 7.515152 8.912348 7.543005 6.861070 -2.040060 -0.600203 -11.731995 0.558424 -4.012703 11.264220 -1.845864 -9.437165 -3.746548 2.184074 10.048673 -4.196506 5.101087 -1.364749 
-15.205440 47.760639 0.876522 -4.259945 1.811392 79.415947 0.000000 0.000000 0.000000 4.376811 7.828950 -2.585177 -1.443429 -2.664279 -3.102773 -10.982089 -1.334118 -0.394643 14.000271 10.324514 5.300424 -91.797981 -15.559564 72.786148 -7.877919 -4.977580 10.234640 -6.601129 -5.649433 -0.592588 -12.175208 -15.147511 9.524699 95.987228 19.179026 33.433952 -0.374060 -5.668624 17.486582 -11.963347 0.460591 -1.703382 7.591453 8.862546 8.260353 7.793739 -2.020981 -0.475973 -12.070782 0.571098 -4.107149 11.507839 -1.992023 -8.687885 -3.743570 2.170757 10.059179 -4.151622 5.090445 -1.328164 
-15.181295 47.721203 0.881570 -4.270515 2.123001 78.933418 0.000000 0.000000 0.000000 4.491394 7.477229 -2.646664 -1.172976 -3.092220 -5.428869 -10.586438 -0.405812 -0.122438 13.799220 10.681420 5.031396 -91.428894 -14.287273 69.118927 -7.595483 -5.583224 9.971071 -4.878930 -5.197216 -0.754420 -12.446881 -15.117381 8.899387 96.203880 18.796568 36.451149 -0.883446 -5.835020 17.228302 -10.983297 0.740197 -1.687591 7.879899 8.808386 9.027871 8.282374 -2.039306 -0.806617 -12.466767 0.597238 -4.053892 11.816898 -2.128031 -8.468305 -3.743258 2.171447 10.293764 -4.267004 5.082312 -1.274619 
-15.127606 47.656525 0.892517 -4.368754 2.297999 78.701576 0.000000 0.000000 0.000000 4.244887 7.450440 -2.709888 -0.860168 -3.815356 -8.170008 -9.590952 0.621586 0.176576 13.707816 10.770469 4.974875 -91.045586 -13.506073 69.464622 -7.580409 -5.854175 9.727294 -5.180915 -5.276563 -0.731899 -12.615138 -15.282369 8.857780 96.370705 18.563007 38.122704 -1.294313 -5.976032 16.961424 -10.547963 0.861941 -1.686814 7.927229 8.973499 9.873814 9.025577 -2.098488 -1.612489 -13.227534 0.620173 -3.928502 12.148933 -2.069297 -9.302667 -3.793961 2.211824 11.354420 -4.387655 5.067829 -1.222271 
-15.054280 47.558681 0.902579 -4.680834 2.082880 78.276878 0.000000 0.000000 0.000000 3.245320 8.102393 -2.539228 -0.187875 -4.988732 -10.825859 -8.317245 1.588323 0.464327 13.860885 10.639606 3.727728 -90.923424 -11.437626 70.731842 -7.434787 -5.988085 9.553142 -6.393479 -5.597366 -0.618254 -12.436233 -16.085716 8.115714 96.625336 16.990088 37.702755 -1.440320 -6.076747 16.765987 -10.025026 1.017458 -1.673463 7.293190 9.510126 10.789448 10.628345 -2.177152 -2.537446 -14.477965 0.622340 -3.739963 12.158434 -1.777116 -10.517500 -3.846152 2.272095 13.156950 -4.563673 5.026009 -1.020716 
-15.016890 47.566467 0.914603 -4.526508 2.696653 78.478241 0.000000 0.000000 0.000000 3.892102 7.648544 -2.283343 -0.403884 -5.551063 -13.828255 -7.203284 2.527748 0.740008 13.894274 10.538149 5.260291 -90.650940 -13.601573 71.219742 -7.076036 -6.233920 9.462692 -6.345152 -5.582907 -0.622504 -12.763378 -15.965244 9.753798 96.791672 18.300514 36.422512 -1.469199 -6.277106 16.512857 -9.201629 1.252453 -1.658231 7.952640 9.262953 11.064489 10.462720 -2.206513 -2.842110 -14.193233 0.638126 -3.784287 12.902788 -1.963166 -11.870249 -3.891525 2.309097 14.305823 -4.755343 5.026992 -0.906754 
-15.032204 47.541367 0.934297 -4.621118 1.674230 78.468269 0.000000 0.000000 0.000000 2.012079 8.061498 -1.806245 0.500570 -6.280406 -16.410830 -6.443051 3.395379 0.992605 13.636498 10.447643 3.962554 -90.566574 -12.004662 73.209030 -7.018326 -6.363113 9.261151 -7.636066 -5.929989 -0.490612 -12.589366 -16.269587 8.226780 96.602722 15.294897 33.877644 -1.086508 -6.474867 16.379948 -7.681173 1.685452 -1.624004 6.370927 9.681010 10.814833 11.586308 -2.187204 -2.719620 -14.663280 0.643958 -3.773722 11.877100 -1.630561 -11.624379 -3.871887 2.288852 14.122273 -4.702677 5.033528 -1.011971 
-15.118913 47.628250 0.931896 -4.434887 1.382568 78.896721 0.000000 0.000000 0.000000 1.981873 7.934765 -1.728181 0.261401 -6.647481 -18.058975 -6.112191 4.071394 1.188196 13.720568 10.248736 4.795267 -90.601402 -13.670247 72.252617 -6.697258 -6.478873 9.368193 -6.559176 -5.647041 -0.598033 -12.522307 -15.888548 9.309980 96.096931 15.961550 32.928402 -0.358323 -6.486741 16.406733 -6.042654 2.158658 -1.561149 6.649842 9.375446 9.592127 9.717697 -2.117421 -1.760080 -13.601858 0.630277 -3.882489 11.398457 -1.689409 -10.788603 -3.837543 2.253618 12.757682 -4.467509 5.069211 -1.218582 
-15.213704 47.774132 0.913509 -4.055867 2.250216 79.518349 0.000000 0.000000 0.000000 4.084812 7.179173 -1.587394 -1.010643 -6.414485 -18.877609 -6.137259 4.354359 1.277810 13.875346 10.127988 7.960759 -90.775528 -18.606367 70.005508 -6.479568 -6.287636 9.744217 -4.897343 -5.202621 -0.756650 -12.909683 -15.150770 12.533037 95.766045 19.863201 33.894615 0.094345 -6.500502 16.416250 -5.180176 2.405208 -1.527633 9.095631 8.540730 8.238202 5.521077 -2.038965 -0.662005 -11.241204 0.527327 -3.991206 12.036660 -2.119378 -10.276872 -3.787022 2.234038 11.480824 -4.243063 5.082796 -1.327991 
-15.271993 47.801548 0.900681 -4.046014 2.221019 79.628212 0.000000 0.000000 0.000000 4.224722 7.401931 -1.358569 -1.126041 -6.491483 -18.519236 -6.324267 4.397811 1.290254 13.960193 10.112424 7.667032 -91.183578 -18.785160 72.758720 -7.200916 -5.507475 9.971343 -6.990590 -5.756068 -0.557622 -12.762254 -15.440168 12.330809 95.636833 19.483036 35.245140 0.202427 -6.524378 16.410391 -4.559909 2.576511 -1.507169 8.820165 8.529650 8.204970 5.773172 -2.038593 -0.578543 -11.063615 0.549728 -4.043665 11.875389 -2.127976 -9.593487 -3.763424 2.191233 10.711964 -4.094694 5.098037 -1.348630 
-15.289650 47.710648 0.901583 -4.307630 1.226994 79.448624 0.000000 0.000000 0.000000 2.161724 8.373028 -1.158769 0.065551 -6.702166 -17.203875 -6.630983 4.061578 1.189861 13.807079 10.158752 4.324355 -91.640884 -14.523623 71.506638 -7.485881 -4.945940 10.402929 -6.354358 -5.585638 -0.623546 -12.153755 -16.425278 8.891267 95.542847 14.890266 36.186081 0.055001 -6.544598 16.371729 -3.834203 2.788715 -1.474266 6.344187 9.215379 8.607449 9.053826 -2.049519 -1.094238 -12.726385 0.603628 -3.954722 10.884205 -1.757317 -8.987138 -3.748243 2.185361 10.332069 -4.086226 5.102322 -1.336701 
-15.296500 47.650291 0.907807 -4.209906 1.197932 79.853256 0.000000 0.000000 0.000000 1.589501 8.444062 -1.387290 0.535890 -6.372742 -15.370215 -6.726868 3.400247 0.992798 13.696233 10.228807 3.222666 -91.940918 -13.380456 70.627563 -7.829623 -4.401748 10.824089 -5.572651 -5.382944 -0.690288 -11.994902 -16.599436 7.608473 95.474068 13.304188 37.717678 -0.349514 -6.623606 16.336748 -4.348151 2.645509 -1.495346 5.669426 9.311066 8.550159 10.177772 -2.089062 -1.618309 -13.336627 0.607157 -3.881471 10.921996 -1.757564 -9.627925 -3.766220 2.192693 10.555446 -4.207808 5.089931 -1.326762 
-15.287188 47.579002 0.918707 -4.161493 1.451244 80.392502 0.000000 0.000000 0.000000 1.491002 8.503022 -1.702854 0.690078 -5.938291 -13.214094 -6.323030 2.491243 0.732822 13.643530 10.164780 3.137326 -92.217140 -13.563725 70.390030 -8.183516 -3.906492 11.177220 -5.102669 -5.253292 -0.741996 -11.949474 -16.541815 7.605088 95.546837 13.366175 34.487865 -0.667667 -6.865410 16.267138 -6.623996 1.990456 -1.583749 5.085724 9.509300 8.959422 11.778253 -2.177241 -2.681131 -14.032163 0.637956 -3.892763 11.339904 -1.699248 -11.129580 -3.792986 2.230537 11.558708 -4.399111 5.083778 -1.300007 
